<?xml version="1.0"?>
<svg xmlns="http://www.w3.org/2000/svg" id="outline" viewBox="0 0 512 512" width="512" height="512"><rect x="192" y="272" width="32" height="16"/><rect x="192" y="304" width="32" height="16"/><rect x="192" y="336" width="32" height="16"/><path d="M296,272H256a8.00039,8.00039,0,0,0-8,8v64a8.00039,8.00039,0,0,0,8,8h40a8.00039,8.00039,0,0,0,8-8V280A8.00039,8.00039,0,0,0,296,272Zm-8,64H264V320h24Zm0-32H264V288h24Z"/><path d="M424,296a8.00026,8.00026,0,0,0-5.46973-7.58984L400,282.2334V280a8.00039,8.00039,0,0,0-8-8H344v-8a7.99943,7.99943,0,0,0-3.5625-6.65625l-24-16A8.00221,8.00221,0,0,0,312,240H64a7.99862,7.99862,0,0,0-6.14551,2.87891l-40,48A7.99881,7.99881,0,0,0,16,296V464a8.00235,8.00235,0,0,0,2.34277,5.65723l24,24A8.00235,8.00235,0,0,0,48,496H88a8.00039,8.00039,0,0,0,8-8V428.94434l27.57812-13.78907A8.00022,8.00022,0,0,0,128,408V384H320a8.00235,8.00235,0,0,0,5.65723-2.34277l16-16A8.00235,8.00235,0,0,0,344,360v-8h48a8.00039,8.00039,0,0,0,8-8v-2.2334l18.53027-6.17676A8.00026,8.00026,0,0,0,424,328v-8h72V304H424ZM80,480H64V411.31348L80,395.314Zm32-76.94434-16,8V384h16ZM136,272a8.00039,8.00039,0,0,0-8,8v56a8.00039,8.00039,0,0,0,8,8h16v16a8.00235,8.00235,0,0,0,2.34277,5.65723L156.68555,368H88a7.975,7.975,0,0,0-5.65674,2.34326l-.00049-.00049-32,32A8.00235,8.00235,0,0,0,48,408v68.68652l-16-16v-161.79L67.74707,256h88.93848l-2.34278,2.34277A8.00235,8.00235,0,0,0,152,264v8Zm16,16v40h-8V288Zm176-8v76.68652L316.68652,368H179.31421L168,356.68652v-89.373L179.31421,256H309.57812L328,268.28125Zm56,56H344V288h40Zm24-13.76562-8,2.66625V299.09937l8,2.66625Z"/><path d="M24,224H424a8.00039,8.00039,0,0,0,8-8V184a8.00039,8.00039,0,0,0-8-8H407.80518C403.6145,87.06494,329.95361,16,240,16H200C110.04639,16,36.3855,87.06494,32.19482,176H24a8.00039,8.00039,0,0,0-8,8v32A8.00039,8.00039,0,0,0,24,224ZM200,32h40c81.12988,0,147.61548,63.89087,151.78979,144H343.71118A112.14423,112.14423,0,0,0,232,72H208V88h24a95.9379,95.9379,0,0,1,77.92651,40H192a7.99862,7.99862,0,0,0-6.14551,2.87891L148.25366,176H48.21021C52.38452,95.89087,118.87012,32,200,32ZM327.66382,176H169.08008l26.667-32H319.25928A95.26117,95.26117,0,0,1,327.66382,176ZM32,192H416v16H32Z"/><path d="M424,496h64a8.00032,8.00032,0,0,0,7.63574-10.38574l-40-128A8.00052,8.00052,0,0,0,448,352H424a8.00039,8.00039,0,0,0-8,8v40H160a8.00039,8.00039,0,0,0-8,8v48a8.00039,8.00039,0,0,0,8,8H352a8.00235,8.00235,0,0,0,5.65723-2.34277L371.31348,448H416v40A8.00039,8.00039,0,0,0,424,496Zm8-128h10.11816l35,112H432ZM200,435.71875,181.57812,448H168V416h13.57812L200,428.28125ZM328,448H304V432H288v16h-8V432H264v16h-8V432H240v16H210.42188l2.01562-1.34375A7.99943,7.99943,0,0,0,216,440V424a7.99943,7.99943,0,0,0-3.5625-6.65625L210.42188,416H328Zm40-16a8.00235,8.00235,0,0,0-5.65723,2.34277L348.68652,448H344V416h72v16Z"/></svg>
