<?xml version="1.0" encoding="iso-8859-1"?>
<!-- Generator: Adobe Illustrator 18.1.1, SVG Export Plug-In . SVG Version: 6.00 Build 0)  -->
<svg version="1.1" id="Capa_1" xmlns="http://www.w3.org/2000/svg" xmlns:xlink="http://www.w3.org/1999/xlink" x="0px" y="0px"
	 viewBox="0 0 320.534 320.534" style="enable-background:new 0 0 320.534 320.534;" xml:space="preserve">
<g>
	<path style="fill:#010002;" d="M298.474,308.755c1.18-63.175,1.849-126.311-2.295-189.394c-0.272-4.106-2.872-9.181-7.49-9.834
		c-25.504-3.612-51.127-5.347-76.81-6.103c37.35-16.932,72.051-45.269,41.299-85.72C235.794-5.171,196.736-5.052,176.116,13.3
		c-11.672,10.383-17.459,24.106-20.337,38.911c-5.782-11.721-13.619-22.393-23.709-31.204C111.995,3.471,77.756-3.523,55.81,13.686
		c-21.99,17.242-9.312,54.815,6.766,70.779c7.74,7.685,17.22,13.092,27.456,17.307c-19.717,0.076-39.335,0.821-58.568,3.323
		c-0.865,0.114-1.659,0.321-2.404,0.587c-4.64,0.424-8.594,3.584-7.794,9.611c5.368,40.195,0.696,80.814,1.18,121.193
		c0.277,23.584,0.685,56.191,20.217,72.862c21.735,18.547,64.817,8.496,90.082,8.235c51.851-0.528,103.679,2.061,155.535,1.371
		C293.916,318.877,298.37,314.368,298.474,308.755z M182.257,37.144c12.64-23.97,47.374-20.413,59.911,0.451
		c18.248,30.366-43.355,51.04-68.755,58.503C173.136,76.143,172.935,54.821,182.257,37.144z M67.346,31.743
		c9.937-21.686,48.625,1.425,57.997,10.938c13.87,14.071,20.266,34.718,21.887,54.554C114.84,88.571,47.542,74.989,67.346,31.743z
		 M278.251,298.6c-34.712,0.234-69.408-0.593-104.115-1.169c-35.251-0.582-73.542,5.303-108.352,0.169
		c-28.903-4.259-23.116-58.149-23.002-78.687c0.179-31.601,2.861-63.099-0.158-94.574c31.079-2.839,62.609-1.191,93.9-0.854
		c-3.318,6.375-6.054,13.146-8.637,19.804c-4.166,10.72-10.731,44.513-26.211,42.882c-13.076-1.376-12.94,19.031,0,20.396
		c34.272,3.612,38.155-43.529,52.226-72.253c10.661,37.176,33.82,84.474,71.959,73.699c12.635-3.568,7.261-23.247-5.423-19.662
		c-24.411,6.897-40.744-35.827-48.359-65.089c34.767-0.31,69.734,0.664,104.202,5.058
		C279.611,185.038,279.252,241.806,278.251,298.6z"/>
</g>
<g>
</g>
<g>
</g>
<g>
</g>
<g>
</g>
<g>
</g>
<g>
</g>
<g>
</g>
<g>
</g>
<g>
</g>
<g>
</g>
<g>
</g>
<g>
</g>
<g>
</g>
<g>
</g>
<g>
</g>
</svg>
