<svg id="Capa_1" enable-background="new 0 0 512 512" height="512" viewBox="0 0 512 512" width="512" xmlns="http://www.w3.org/2000/svg"><g><path d="m437 46h-60c-8.284 0-15 6.716-15 15v42.469l-96.146-83.778c-5.648-4.921-14.061-4.921-19.709 0-5.028 4.381-230.19 200.58-241 210-6.246 5.442-6.897 14.917-1.455 21.164 5.443 6.246 14.918 6.896 21.164 1.455l5.146-4.484v233.174c0 8.284 6.716 15 15 15h422c8.284 0 15-6.716 15-15v-233.174l5.146 4.484c6.247 5.442 15.722 4.791 21.163-1.455 5.442-6.246 4.792-15.721-1.454-21.164-1.865-1.632-49.278-42.939-54.854-47.799v-120.892c-.001-8.284-6.717-15-15.001-15zm-45 30h30v79.751l-30-26.141zm-151 390v-110.512c0-6.347-3.995-12.007-9.976-14.133-29.921-10.637-50.024-38.91-50.024-70.355 0-23.762 11.479-45.712 30-59.61v59.61c0 3.978 1.581 7.793 4.394 10.606l30 30c5.857 5.858 15.355 5.858 21.213 0l30-30c2.813-2.812 4.393-6.628 4.393-10.606v-59.787c19.126 13.966 31 36.02 31 59.787 0 31.232-20.505 59.505-51.024 70.355-5.98 2.126-9.976 7.786-9.976 14.133v110.512zm211 0h-151v-100.49c36.886-17.389 61-54.146 61-94.51 0-43.897-28.522-83.53-70.976-98.622-4.591-1.632-9.691-.932-13.674 1.879-3.982 2.811-6.351 7.381-6.351 12.255v78.275l-15 15-15-15v-78.275c0-4.874-2.368-9.444-6.35-12.255s-9.081-3.51-13.674-1.879c-41.854 14.879-69.975 54.512-69.975 98.622 0 40.505 23.715 77.236 60 94.49v100.51h-151v-244.316l196-170.788 196 170.789z"/></g></svg>