<?xml version="1.0" encoding="iso-8859-1"?>
<!-- Generator: Adobe Illustrator 19.0.0, SVG Export Plug-In . SVG Version: 6.00 Build 0)  -->
<svg version="1.1" id="Capa_1" xmlns="http://www.w3.org/2000/svg" xmlns:xlink="http://www.w3.org/1999/xlink" x="0px" y="0px"
	 viewBox="0 0 480 480" style="enable-background:new 0 0 480 480;" xml:space="preserve">
<g>
	<g>
		<g>
			<path d="M472,104H296c-4.418,0-8,3.582-8,8v192h-40v-8h8c4.418,0,8-3.582,8-8s-3.582-8-8-8h-80c-4.418,0-8,3.582-8,8s3.582,8,8,8
				h8v8h-80v-8h8c4.418,0,8-3.582,8-8s-3.582-8-8-8H32c-4.418,0-8,3.582-8,8s3.582,8,8,8h8v8H8c-4.418,0-8,3.582-8,8v160
				c0,4.418,3.582,8,8,8h464c4.418,0,8-3.582,8-8V112C480,107.582,476.418,104,472,104z M200,296h32v8h-32V296z M56,296h32v8H56V296
				z M128,464H16v-96h112V464z M128,352H16v-32h112V352z M288,464H144V320h144V464z M464,464H304V248h160V464z M464,232H304V120h160
				V232z"/>
			<path d="M168,448h96c4.418,0,8-3.582,8-8v-96c0-4.418-3.582-8-8-8h-96c-4.418,0-8,3.582-8,8v96C160,444.418,163.582,448,168,448z
				 M176,352h80v80h-80V352z"/>
			<path d="M320,224c4.418,0,8-3.582,8-8v-32c0-4.418-3.582-8-8-8s-8,3.582-8,8v32C312,220.418,315.582,224,320,224z"/>
			<path d="M320,304c4.418,0,8-3.582,8-8v-32c0-4.418-3.582-8-8-8s-8,3.582-8,8v32C312,300.418,315.582,304,320,304z"/>
			<path d="M18.86,142.14c1.442,1.204,3.261,1.862,5.14,1.86h240c4.418,0.006,8.005-3.57,8.012-7.988
				c0.003-1.878-0.656-3.698-1.86-5.14l-80-96c-1.523-1.823-3.777-2.875-6.152-2.872h-8V8c0-4.418-3.582-8-8-8h-48
				c-4.418,0-8,3.582-8,8v24h-8c-2.375-0.003-4.629,1.049-6.152,2.872l-80,96C15.016,134.263,15.469,139.308,18.86,142.14z M128,16
				h32v16h-32V16z M107.752,48h72.496l66.672,80H41.08L107.752,48z"/>
		</g>
	</g>
</g>
<g>
</g>
<g>
</g>
<g>
</g>
<g>
</g>
<g>
</g>
<g>
</g>
<g>
</g>
<g>
</g>
<g>
</g>
<g>
</g>
<g>
</g>
<g>
</g>
<g>
</g>
<g>
</g>
<g>
</g>
</svg>
