<?xml version="1.0"?>
<svg xmlns="http://www.w3.org/2000/svg" id="outline" viewBox="0 0 512 512" width="512" height="512"><path d="M248,256a8,8,0,0,0-8-8h-8v8a7.99989,7.99989,0,0,0,8,8h8Z"/><path d="M264,256v8h8a7.99993,7.99993,0,0,0,8-8v-8h-8A8.00009,8.00009,0,0,0,264,256Z"/><path d="M260,272h-8a4.00008,4.00008,0,0,0-4,4v4a8,8,0,0,0,16,0v-4A4,4,0,0,0,260,272Z"/><path d="M136,240A120,120,0,1,0,256,120,120.13623,120.13623,0,0,0,136,240Zm160,95.99536a103.94435,103.94435,0,0,1-80,0V321.88867a20.831,20.831,0,0,1,5.32733-13.96264,55.82144,55.82144,0,0,0,69.34528,0A20.83078,20.83078,0,0,1,296,321.88867ZM206.79517,221.2832A37.25749,37.25749,0,0,1,200.8916,208h15.96991A56.32188,56.32188,0,0,0,206.79517,221.2832ZM296,264a40,40,0,0,1-80,0V248a40,40,0,0,1,80,0Zm64-24a104.011,104.011,0,0,1-48,87.60181v-5.71314a36.74152,36.74152,0,0,0-10.28577-25.604A55.67369,55.67369,0,0,0,312,264V248c0-1.22119-.05322-2.42993-.13062-3.63184l.59888-.39941A52.73506,52.73506,0,0,0,336,200a8.00008,8.00008,0,0,0-8-8H302.62744a23.84254,23.84254,0,0,0-16.9707,7.0293l-.92554.92553a55.85181,55.85181,0,0,0-52.3761-2.70141A23.81581,23.81581,0,0,0,217.37256,192H192a8.00008,8.00008,0,0,0-8,8,53.18535,53.18535,0,0,0,16.802,38.6145A56.08614,56.08614,0,0,0,200,248v16a55.67326,55.67326,0,0,0,10.28577,32.28467A36.74152,36.74152,0,0,0,200,321.88867v5.71314A103.988,103.988,0,1,1,360,240Zm-62.79224-29.87183A7.93662,7.93662,0,0,1,302.62744,208h16.499a36.7257,36.7257,0,0,1-11.14074,19.219A56.11312,56.11312,0,0,0,297.20776,210.12817Z"/><path d="M192,368a24,24,0,1,0,24,24A24.02718,24.02718,0,0,0,192,368Zm0,32a8,8,0,1,1,8-8A8.00917,8.00917,0,0,1,192,400Z"/><path d="M256,368a24,24,0,1,0,24,24A24.02718,24.02718,0,0,0,256,368Zm0,32a8,8,0,1,1,8-8A8.00917,8.00917,0,0,1,256,400Z"/><path d="M320,368a24,24,0,1,0,24,24A24.02718,24.02718,0,0,0,320,368Zm0,32a8,8,0,1,1,8-8A8.00917,8.00917,0,0,1,320,400Z"/><path d="M256,16a80.09041,80.09041,0,0,0-80,80v4.29956c-.84448.45923-1.67932.93408-2.515,1.40723L151.71826,21.89551a8.00028,8.00028,0,0,0-9.916-5.58789l-56,16A8.00082,8.00082,0,0,0,80.27,42.06152L112.09283,161.397A166.97949,166.97949,0,0,0,88,248V440a7.95475,7.95475,0,0,0,.85083,3.5752l-.0061.00292,24,48A7.99967,7.99967,0,0,0,120,496H392a7.99967,7.99967,0,0,0,7.15527-4.42188l24-48-.0061-.00292A7.954,7.954,0,0,0,424,440V248a166.97935,166.97935,0,0,0-24.09277-86.603L431.73,42.06152a8.00082,8.00082,0,0,0-5.53223-9.7539l-56-16a8.00028,8.00028,0,0,0-9.916,5.58789L338.515,101.70679c-.83569-.47315-1.67053-.948-2.515-1.40723V96A80.09041,80.09041,0,0,0,256,16Zm0,16a64.07967,64.07967,0,0,1,63.91125,60.64209,166.62915,166.62915,0,0,0-16.81848-5.91431,47.9962,47.9962,0,0,0-94.1856,0,166.62808,166.62808,0,0,0-16.81842,5.91431A64.07967,64.07967,0,0,1,256,32Zm29.00928,50.51392a168.633,168.633,0,0,0-58.01862,0,31.98419,31.98419,0,0,1,58.01862,0ZM97.75488,45.5332,138.41211,33.917l20.93207,76.74976a169.42462,169.42462,0,0,0-35.29633,33.46387ZM387.05566,480H124.94434l-16-32H403.05566ZM373.58789,33.917,414.24512,45.5332l-26.293,98.59742a169.42344,169.42344,0,0,0-35.29639-33.46387ZM408,248V432H104V248c0-83.81348,68.187-152,152-152S408,164.18652,408,248Z"/></svg>
