<?xml version="1.0"?>
<svg xmlns="http://www.w3.org/2000/svg" viewBox="0 0 64 64" width="512" height="512"><g id="Outline"><g><path d="M61.568,22.177,51,14.889V3a1,1,0,0,0-1-1H42a1,1,0,0,0-1,1V7.992L32.568,2.177a1,1,0,0,0-1.136,0l-4.062,2.8c-.03-.011-.054-.034-.085-.042a1,1,0,0,0-.759.1l-2.55,1.472A8.806,8.806,0,0,0,23,5.942V3a1,1,0,0,0-1-1H16a1,1,0,0,0-1,1V5.942a8.806,8.806,0,0,0-.976.566l-2.55-1.472a1,1,0,0,0-1.367.366l-3,5.2a1,1,0,0,0,1.733,1l2.5-4.33,2.244,1.3A1,1,0,0,0,14.7,8.486a6.955,6.955,0,0,1,1.675-.972A1,1,0,0,0,17,6.587V4h4V6.587a1,1,0,0,0,.625.927,6.955,6.955,0,0,1,1.675.972,1,1,0,0,0,1.116.078l2.244-1.3,2,3.464-2.245,1.3a1,1,0,0,0-.491,1,6.215,6.215,0,0,1,0,1.938,1,1,0,0,0,.491,1l1.078.622A18.045,18.045,0,0,0,17.044,24H17V21.413a1,1,0,0,0-.625-.927,6.955,6.955,0,0,1-1.675-.972,1,1,0,0,0-1.116-.078l-2.244,1.3-2-3.464,2.245-1.3a1,1,0,0,0,.491-1,6.215,6.215,0,0,1,0-1.938,1,1,0,0,0-1.982-.273A9.039,9.039,0,0,0,10,14c0,.183.007.369.021.565L7.474,16.036A1,1,0,0,0,7.107,17.4l.641,1.109L2.432,22.177A1,1,0,0,0,2,23v3a1,1,0,0,0,1,1H8V56H3a1,1,0,0,0-1,1v4a1,1,0,0,0,1,1H40a1,1,0,0,0,0-2H4V58H9a1,1,0,0,0,1-1V26a1,1,0,0,0-1-1H4V23.525l4.751-3.276L10.107,22.6a1,1,0,0,0,1.367.366l2.55-1.472a8.806,8.806,0,0,0,.976.566V25a.99.99,0,0,0,.908.981,17.884,17.884,0,0,0,1.965,19.152,1,1,0,1,0,1.57-1.239A15.823,15.823,0,0,1,16,34,16.019,16.019,0,0,1,32,18a15.823,15.823,0,0,1,9.894,3.443,1,1,0,1,0,1.239-1.57A17.808,17.808,0,0,0,32,16c-.483,0-.958.035-1.432.073-.015-.011-.025-.028-.042-.037l-2.547-1.471c.014-.2.021-.382.021-.565s-.007-.369-.021-.565l2.547-1.471a1,1,0,0,0,.367-1.366L28.572,6.579,32,4.215l9.432,6.505A1,1,0,0,0,43,9.9V4h6V15.414a1,1,0,0,0,.432.823L60,23.525V25H55a1,1,0,0,0-1,1v7a1,1,0,0,0,2,0V27h5a1,1,0,0,0,1-1V23A1,1,0,0,0,61.568,22.177Z"/><path d="M43.293,31.292l-1.417,1.417a15.021,15.021,0,0,0-20.482.685,1,1,0,0,0,1.414,1.414,13.013,13.013,0,0,1,18.384,0,1,1,0,0,0,1.414,0l2.829-2.829a1,1,0,0,0,0-1.414,19.022,19.022,0,0,0-26.87,0,1,1,0,0,0,1.414,1.414A17.022,17.022,0,0,1,43.293,31.292Z"/><path d="M36.243,40.757a1,1,0,0,0,.707-.293l2.828-2.828a1,1,0,0,0,0-1.414,11.012,11.012,0,0,0-15.556,0,1,1,0,0,0,0,1.414l2.828,2.828a1,1,0,0,0,1.414,0,5.008,5.008,0,0,1,7.072,0A.993.993,0,0,0,36.243,40.757Zm-8.435-2.363-1.426-1.426a9.019,9.019,0,0,1,11.236,0l-1.426,1.426a7.012,7.012,0,0,0-8.384,0Z"/><path d="M29,44a3,3,0,1,0,3-3A3,3,0,0,0,29,44Zm4,0a1,1,0,1,1-1-1A1,1,0,0,1,33,44Z"/><path d="M23,14a4,4,0,1,0-4,4A4,4,0,0,0,23,14Zm-6,0a2,2,0,1,1,2,2A2,2,0,0,1,17,14Z"/><path d="M55.4,44.225a1,1,0,0,0-.2,1.4A3.956,3.956,0,0,1,56,48a4,4,0,0,1-8,0,3.956,3.956,0,0,1,.8-2.375,1,1,0,1,0-1.6-1.2A5.942,5.942,0,0,0,46,48a6,6,0,0,0,12,0,5.942,5.942,0,0,0-1.2-3.57A1,1,0,0,0,55.4,44.225Z"/><path d="M57,36H49.882A18.1,18.1,0,0,0,50,34a17.808,17.808,0,0,0-3.873-11.133,1,1,0,1,0-1.57,1.239A15.823,15.823,0,0,1,48,34,16.019,16.019,0,0,1,32,50a15.821,15.821,0,0,1-9.894-3.443,1,1,0,1,0-1.239,1.57A17.942,17.942,0,0,0,42,48.956V57a5.006,5.006,0,0,0,5,5H57a5.006,5.006,0,0,0,5-5V41A5.006,5.006,0,0,0,57,36Zm3,21a3,3,0,0,1-3,3H47a3,3,0,0,1-3-3V47.378A17.981,17.981,0,0,0,49.536,38H57a3,3,0,0,1,3,3Z"/><path d="M55,56H49a1,1,0,0,0,0,2h6a1,1,0,0,0,0-2Z"/><path d="M52,49a1,1,0,0,0,1-1V43a1,1,0,0,0-2,0v5A1,1,0,0,0,52,49Z"/><path d="M16,58h3a1,1,0,0,0,0-2H16a1,1,0,0,0,0,2Z"/><path d="M24,56a1,1,0,0,0,0,2h2a1,1,0,0,0,0-2Z"/><path d="M16,54a1,1,0,0,0,1-1V50a1,1,0,0,0-2,0v3A1,1,0,0,0,16,54Z"/></g></g></svg>
