<svg id="line_icons" height="512" viewBox="0 0 74 74" width="512" xmlns="http://www.w3.org/2000/svg" data-name="line icons"><path d="m36.331 52.55a1 1 0 0 1 -.59-.193l-8.327-6.086a1 1 0 0 1 -.4-.934l.545-4.271a1 1 0 0 1 1.984.253l-.471 3.686 7.261 5.307 7.267-5.307-.474-3.7a1 1 0 0 1 1.984-.254l.549 4.283a1 1 0 0 1 -.4.934l-8.331 6.087a1 1 0 0 1 -.597.195z"/><path d="m22.46 33.551c-.022 0-.044 0-.065 0a9.978 9.978 0 0 1 -2.517-.589 5.25 5.25 0 0 1 -3.587-3.718 5.4 5.4 0 0 1 3.355-6.244 4.7 4.7 0 0 1 .608-.171 1 1 0 1 1 .434 1.952 3.319 3.319 0 0 0 -.379.105 3.459 3.459 0 0 0 -2.063 3.935 3.235 3.235 0 0 0 2.2 2.223c.036.01.073.022.107.035a8.143 8.143 0 0 0 1.975.478 1 1 0 0 1 -.063 2z"/><path d="m50.2 33.551a1 1 0 0 1 -.063-2 8.128 8.128 0 0 0 1.975-.478c.034-.013.072-.025.108-.035a3.232 3.232 0 0 0 2.194-2.223 3.451 3.451 0 0 0 -2.014-3.915c-.064-.022-.141-.049-.262-.081a1 1 0 1 1 .515-1.933c.256.069.405.126.405.126 2.673.847 3.814 3.9 3.309 6.23a5.248 5.248 0 0 1 -3.587 3.719 9.967 9.967 0 0 1 -2.516.589c-.019.001-.041.001-.064.001z"/><path d="m64.033 70.629h-55.404a1 1 0 0 1 -1-1v-6.98c0-8.29 5.77-15.7 13.424-17.246l3.216-.523a1 1 0 0 1 .32 1.975l-3.179.516c-6.7 1.35-11.781 7.921-11.781 15.278v5.98h53.4v-5.98c0-7.327-5.116-13.882-11.9-15.249l-3.075-.548a1 1 0 1 1 .351-1.969l3.1.553c7.721 1.554 13.527 8.953 13.527 17.213v6.98a1 1 0 0 1 -.999 1z"/><path d="m36.319 45.4a11.227 11.227 0 0 1 -5.982-1.713c-4.2-2.6-9.216-7.17-9.216-14.114v-3.167a1 1 0 0 1 2 0v3.165c0 6.024 4.5 10.077 8.276 12.418a9.315 9.315 0 0 0 9.854 0c3.783-2.346 8.29-6.4 8.29-12.42v-3.163a1 1 0 0 1 2 0v3.165c0 6.937-5.02 11.506-9.232 14.118a11.3 11.3 0 0 1 -5.99 1.711z"/><path d="m41.175 55.6a.994.994 0 0 1 -.532-.154l-4.843-3.054a1 1 0 0 1 -.056-1.654l8.33-6.07a.976.976 0 0 1 .626-.191 32 32 0 0 1 3.687.4 1 1 0 0 1 .626 1.617l-7.06 8.736a1 1 0 0 1 -.778.37zm-3.064-4.116 2.846 1.8 5.388-6.668c-.454-.053-.912-.1-1.379-.122z"/><path d="m31.487 55.6a1 1 0 0 1 -.778-.372l-7.058-8.728a1 1 0 0 1 .626-1.617 32.034 32.034 0 0 1 3.686-.4.982.982 0 0 1 .626.191l8.331 6.07a1 1 0 0 1 -.056 1.654l-4.844 3.05a1 1 0 0 1 -.533.152zm-5.17-8.988 5.388 6.668 2.846-1.8-6.851-4.988c-.471.026-.929.069-1.383.122z"/><path d="m19.291 70.629a1 1 0 0 1 -1-1v-9.44a1 1 0 0 1 2 0v9.44a1 1 0 0 1 -1 1z"/><path d="m53.37 70.629a1 1 0 0 1 -1-1v-9.44a1 1 0 0 1 2 0v9.44a1 1 0 0 1 -1 1z"/><path d="m22.17 31.539a1 1 0 0 1 -.946-.681 56.7 56.7 0 0 1 -2.671-17.027 9.84 9.84 0 0 1 2.534-6.289 23.155 23.155 0 0 1 5.168-4.142 18.534 18.534 0 0 1 5.768-2.509 16.8 16.8 0 0 1 6.841.213 7.546 7.546 0 0 1 4.576 2.859 5.827 5.827 0 0 1 3.137-.986 7.8 7.8 0 0 1 7.9 4.224c.008.013.015.026.022.039a10.318 10.318 0 0 1 .99 7.6 15.04 15.04 0 0 1 -.663 1.631 8.449 8.449 0 0 0 -.748 2.1 6.1 6.1 0 0 1 -.131 1.017 4.447 4.447 0 0 0 -.1.689 25.87 25.87 0 0 1 -2.2 9.069c-.24.592-.447 1.1-.534 1.428a.982.982 0 0 1 -1 .74 1 1 0 0 1 -.948-.8 79.3 79.3 0 0 1 -.651-8.652v-.044a9.5 9.5 0 0 0 -9.509-8.578c-.317.021-.65 0-.974.009h-.131a25.114 25.114 0 0 0 -6.879.624c-.89.173-5.159 1.2-6.3 5.415-.326.991-1.125 7.366-1.557 11.163a1 1 0 0 1 -.888.882.942.942 0 0 1 -.106.006zm16.836-20.1a11.514 11.514 0 0 1 11.5 10.415c0 .04.011.181.01.221-.018.466.07 2.264.2 4.091a20.705 20.705 0 0 0 1.136-5.953 6.435 6.435 0 0 1 .13-.993 4.2 4.2 0 0 0 .1-.726.889.889 0 0 1 .01-.136 9.746 9.746 0 0 1 .916-2.712 13.2 13.2 0 0 0 .575-1.4 8.339 8.339 0 0 0 -.854-6.082 5.829 5.829 0 0 0 -6.021-3.193c-.989.055-2.141.356-2.463 1.038a1 1 0 0 1 -.866.572 1.019 1.019 0 0 1 -.907-.5 6.176 6.176 0 0 0 -3.972-3.011 14.979 14.979 0 0 0 -6.067-.221 16.679 16.679 0 0 0 -5.127 2.251 21.281 21.281 0 0 0 -4.706 3.751 7.826 7.826 0 0 0 -2.047 4.961 60.75 60.75 0 0 0 1.238 11.521 62.664 62.664 0 0 1 1.016-6.42 9.794 9.794 0 0 1 7.793-6.794 26.873 26.873 0 0 1 7.3-.67h.12c.316-.005.68-.001.986-.009z"/></svg>